<svg xmlns="http://www.w3.org/2000/svg" width="26.704" height="29.691" viewBox="0 0 26.704 29.691">
  <path id="Path_fingerprint" data-name="Path / fingerprint" d="M24.985,5.667a.69.69,0,0,1-.341-.089A17,17,0,0,0,16.36,3.485,16.969,16.969,0,0,0,8.106,5.578a.744.744,0,0,1-.713-1.306A18.3,18.3,0,0,1,16.36,2a19,19,0,0,1,8.967,2.227.769.769,0,0,1,.312,1.024.712.712,0,0,1-.653.416M3.741,13.461a.741.741,0,0,1-.609-1.173A15.349,15.349,0,0,1,8.7,7.433a17.137,17.137,0,0,1,15.306-.015,15.267,15.267,0,0,1,5.567,4.825.754.754,0,0,1-1.217.891A13.742,13.742,0,0,0,23.322,8.74a15.643,15.643,0,0,0-13.955.015A14.186,14.186,0,0,0,4.32,13.134a.631.631,0,0,1-.579.327M13.02,31.379a.72.72,0,0,1-.52-.223,15.008,15.008,0,0,1-2.984-3.919,13.178,13.178,0,0,1-1.559-6.443,8.222,8.222,0,0,1,8.4-8,8.222,8.222,0,0,1,8.4,8,.742.742,0,1,1-1.485,0,6.734,6.734,0,0,0-6.918-6.517,6.734,6.734,0,0,0-6.918,6.517,11.532,11.532,0,0,0,1.381,5.7A13.887,13.887,0,0,0,13.569,30.1a.762.762,0,0,1,0,1.054.843.843,0,0,1-.549.223m10.644-2.746a8,8,0,0,1-4.6-1.321,7.9,7.9,0,0,1-3.533-6.517.742.742,0,1,1,1.485,0,6.385,6.385,0,0,0,2.88,5.285,6.509,6.509,0,0,0,3.771,1.054,9.811,9.811,0,0,0,1.544-.148.733.733,0,0,1,.861.609.748.748,0,0,1-.609.861,10.137,10.137,0,0,1-1.8.178M20.68,31.691h-.193a11.878,11.878,0,0,1-5.522-3.147,10.807,10.807,0,0,1-3.221-7.749,4.477,4.477,0,0,1,4.572-4.365,4.477,4.477,0,0,1,4.572,4.365,3.1,3.1,0,0,0,6.176,0c0-5.6-4.825-10.139-10.763-10.139a10.805,10.805,0,0,0-9.813,5.983,9.55,9.55,0,0,0-.876,4.157,14.753,14.753,0,0,0,.995,5.359.725.725,0,0,1-.431.95.749.749,0,0,1-.95-.431,16.276,16.276,0,0,1-1.084-5.879,11.153,11.153,0,0,1,1.009-4.81A12.32,12.32,0,0,1,16.3,9.155c6.74,0,12.247,5.211,12.247,11.624a4.577,4.577,0,0,1-9.145,0,2.99,2.99,0,0,0-3.088-2.88,2.99,2.99,0,0,0-3.088,2.88A9.349,9.349,0,0,0,16,27.475a9.955,9.955,0,0,0,4.854,2.732.759.759,0,0,1,.52.92A.724.724,0,0,1,20.68,31.691Z" transform="translate(-3.002 -2)" fill="#d32286"/>
</svg>
