<svg xmlns="http://www.w3.org/2000/svg" width="48.617" height="45.342" viewBox="0 0 48.617 45.342">
  <path id="Path_415" data-name="Path 415" d="M-1839.375,16.522c-.345,11.376-10.058,25.1-22.153,27.825-7.332,1-13.31-3.62-18.081-9.014C-1889.1,24.732-1892.655,7-1878.066.624c3.784-1.791,10.529-2.057,14.351-.252a49.573,49.573,0,0,0-5.2,3.792,15.182,15.182,0,0,0-7.158,1.005c-10.748,4.678-7.722,17.581.494,27.273,7.49,8.622,15.414,9.465,23.274.824,8.461-9.432,12.59-22.923,1.232-28.1-5.235-2.54-10.958,1.429-14.458,4.922-6.011,5.066-5.992,13.139,1.931,14.03,8.278.244,7.615-10.922,1.775-15.164a21.5,21.5,0,0,1,4.21-2.559c4.737,3.774,7.768,12.956,2.519,19.224a10.14,10.14,0,0,1-8.466,3.769c-11.508.209-14.672-14.59-6.83-21.974a35.406,35.406,0,0,1,9.9-6.848c10.828-4.545,22.477,5.1,21.125,15.955" transform="translate(1887.884 0.857)" fill="#d62287"/>
</svg>
