<svg id="logo" xmlns="http://www.w3.org/2000/svg" width="197.371" height="57.121" viewBox="0 0 197.371 57.121">
  <path id="Path_415" data-name="Path 415" d="M-1826.773,21.037c-.435,14.332-12.671,31.614-27.908,35.053-9.237,1.26-16.768-4.56-22.777-11.355-11.961-13.355-16.436-35.688,1.943-43.726,4.767-2.256,13.264-2.591,18.079-.318a62.448,62.448,0,0,0-6.556,4.777,19.126,19.126,0,0,0-9.018,1.266c-13.541,5.893-9.728,22.148.623,34.357,9.436,10.862,19.418,11.924,29.32,1.038,10.659-11.882,15.861-28.878,1.552-35.4-6.6-3.2-13.8,1.8-18.214,6.2-7.573,6.382-7.548,16.552,2.433,17.675,10.429.307,9.594-13.759,2.236-19.1a27.085,27.085,0,0,1,5.3-3.224c5.967,4.755,9.786,16.322,3.173,24.218-3.1,3.431-6.159,4.811-10.665,4.748-14.5.264-18.483-18.38-8.6-27.683A44.6,44.6,0,0,1-1853.386.937c13.641-5.725,28.316,6.426,26.613,20.1" transform="translate(1887.884 0.857)" fill="#d62287"/>
  <g id="Group_127" data-name="Group 127" transform="translate(67.191)">
    <path id="Path_378" data-name="Path 378" d="M-1209.8,29.068V52.154h-5.343V42.689h-10.487v9.465h-5.343V29.068h5.343v9.1h10.487v-9.1Z" transform="translate(1230.972 -26.199)" fill="#d62287"/>
    <path id="Path_379" data-name="Path 379" d="M-1028.937,74.658h-13.423c.495,2.21,2.375,3.562,5.079,3.562a6.015,6.015,0,0,0,4.452-1.715l2.737,2.968c-1.649,1.88-4.123,2.869-7.322,2.869-6.134,0-10.125-3.859-10.125-9.136,0-5.31,4.057-9.136,9.465-9.136,5.211,0,9.235,3.5,9.235,9.2C-1028.838,73.668-1028.9,74.229-1028.937,74.658Zm-13.489-3h8.74a4.216,4.216,0,0,0-4.354-3.694A4.2,4.2,0,0,0-1042.426,71.656Z" transform="translate(1074.154 -56.123)" fill="#d62287"/>
    <path id="Path_380" data-name="Path 380" d="M-874.756,71.953V82.078h-4.815v-2.21c-.956,1.616-2.8,2.474-5.409,2.474-4.156,0-6.629-2.309-6.629-5.376,0-3.133,2.209-5.31,7.618-5.31h4.09c0-2.21-1.319-3.5-4.09-3.5A8.53,8.53,0,0,0-889.1,69.81l-1.847-3.595a13.639,13.639,0,0,1,7.651-2.144C-877.89,64.071-874.756,66.578-874.756,71.953Zm-5.145,4.518V74.658h-3.529c-2.408,0-3.166.89-3.166,2.078,0,1.286,1.088,2.144,2.9,2.144A3.791,3.791,0,0,0-879.9,76.472Z" transform="translate(940.85 -56.123)" fill="#d62287"/>
    <path id="Path_381" data-name="Path 381" d="M-732.047,19.522h5.145V43.993h-5.145Z" transform="translate(804.44 -18.038)" fill="#d62287"/>
    <path id="Path_382" data-name="Path 382" d="M-653.257,59.652a7.352,7.352,0,0,1-4.188,1.121c-4.188,0-6.629-2.144-6.629-6.365V47.12h-2.737V43.162h2.737v-4.32h5.145v4.32h4.419V47.12h-4.419v7.223a2.069,2.069,0,0,0,2.21,2.342,3.467,3.467,0,0,0,2.078-.66Z" transform="translate(748.67 -34.555)" fill="#d62287"/>
    <path id="Path_383" data-name="Path 383" d="M-523.884,33.835V43.993h-5.145V34.627c0-2.869-1.319-4.189-3.595-4.189-2.474,0-4.254,1.517-4.254,4.782v8.773h-5.145V19.522h5.145V28.1a7.8,7.8,0,0,1,5.64-2.111C-527.05,25.986-523.884,28.427-523.884,33.835Z" transform="translate(641.988 -18.038)" fill="#d62287"/>
    <path id="Path_384" data-name="Path 384" d="M-377.912,12.162a2.941,2.941,0,0,1,3.2-2.869c1.913,0,3.2,1.187,3.2,2.77a2.958,2.958,0,0,1-3.2,2.968A2.941,2.941,0,0,1-377.912,12.162Zm.627,5.343h5.145V35.248h-5.145Z" transform="translate(501.689 -9.293)" fill="#d62287"/>
  </g>
  <g id="Group_607" data-name="Group 607" transform="translate(67.191 28.56)">
    <path id="Path_385" data-name="Path 385" d="M-1194.459,249.067l-7.286,22.844h-5.536l-4.9-15.469-5.059,15.469h-5.5l-7.318-22.844h5.345l5.027,16.056,5.25-16.056h4.772l5.091,16.187,5.186-16.187Z" transform="translate(1230.061 -246.299)" fill="#d62287"/>
    <path id="Path_386" data-name="Path 386" d="M-959.586,294.283h-12.949c.477,2.132,2.291,3.436,4.9,3.436a5.8,5.8,0,0,0,4.3-1.654l2.641,2.863c-1.591,1.814-3.977,2.768-7.063,2.768-5.918,0-9.767-3.723-9.767-8.813,0-5.122,3.913-8.813,9.131-8.813,5.027,0,8.909,3.373,8.909,8.877C-959.491,293.329-959.554,293.87-959.586,294.283Zm-13.013-2.9h8.431a4.068,4.068,0,0,0-4.2-3.563A4.052,4.052,0,0,0-972.6,291.388Z" transform="translate(1013.811 -275.83)" fill="#d62287"/>
    <path id="Path_387" data-name="Path 387" d="M-816.709,291.674v9.767h-4.645V299.31c-.922,1.559-2.7,2.386-5.218,2.386-4.009,0-6.4-2.227-6.4-5.186,0-3.023,2.132-5.122,7.349-5.122h3.945c0-2.132-1.273-3.372-3.945-3.372a8.23,8.23,0,0,0-4.931,1.591l-1.782-3.468a13.158,13.158,0,0,1,7.381-2.068C-819.732,284.07-816.709,286.488-816.709,291.674Zm-4.963,4.359v-1.75h-3.4c-2.323,0-3.054.859-3.054,2,0,1.241,1.05,2.068,2.8,2.068A3.657,3.657,0,0,0-821.672,296.033Z" transform="translate(889.994 -275.83)" fill="#d62287"/>
    <path id="Path_388" data-name="Path 388" d="M-684.769,239.521h4.963V263.7h-4.963Z" transform="translate(762.895 -238.089)" fill="#d62287"/>
    <path id="Path_389" data-name="Path 389" d="M-617.822,278.917A7.093,7.093,0,0,1-621.862,280c-4.041,0-6.395-2.068-6.395-6.141v-7.031H-630.9v-3.818h2.641v-4.168h4.963v4.168h4.263v3.818h-4.263v6.968a2,2,0,0,0,2.132,2.259,3.345,3.345,0,0,0,2-.636Z" transform="translate(716.883 -254.132)" fill="#d62287"/>
    <path id="Path_390" data-name="Path 390" d="M-499.977,253.664V263.7h-4.963v-9.255c0-2.835-1.273-4.139-3.468-4.139-2.386,0-4.1,1.5-4.1,4.725V263.7h-4.963v-24.18h4.963v8.473a7.425,7.425,0,0,1,5.441-2.086C-503.032,245.908-499.977,248.32-499.977,253.664Z" transform="translate(620.103 -238.089)" fill="#d62287"/>
    <path id="Path_391" data-name="Path 391" d="M-364.73,232.124a2.864,2.864,0,0,1,3.086-2.831,2.81,2.81,0,0,1,3.086,2.734,2.883,2.883,0,0,1-3.086,2.929A2.864,2.864,0,0,1-364.73,232.124Zm.6,5.272h4.963V254.9h-4.963Z" transform="translate(488.738 -229.293)" fill="#d62287"/>
  </g>
</svg>
