<svg id="MDI_cash-multiple" data-name="MDI / cash-multiple" xmlns="http://www.w3.org/2000/svg" width="38.278" height="38.278" viewBox="0 0 38.278 38.278">
  <g id="Boundary" fill="#d32286" stroke="rgba(0,0,0,0)" stroke-width="1" opacity="0">
    <rect width="38.278" height="38.278" stroke="none"/>
    <rect x="0.5" y="0.5" width="37.278" height="37.278" fill="none"/>
  </g>
  <path id="Path_cash-multiple" data-name="Path / cash-multiple" d="M7.38,6H36.088V25.139H7.38V6m14.354,4.785a4.785,4.785,0,1,1-4.785,4.785,4.785,4.785,0,0,1,4.785-4.785M13.759,9.19a3.19,3.19,0,0,1-3.19,3.19v6.38a3.19,3.19,0,0,1,3.19,3.19H29.709a3.19,3.19,0,0,1,3.19-3.19V12.38a3.19,3.19,0,0,1-3.19-3.19H13.759M1,12.38H4.19V28.329H29.709v3.19H1Z" transform="translate(0.595 0.38)" fill="#d32286"/>
</svg>
